# xmcd CD database file
#
# Track frame offsets:
#	150
#	28908
#	78537
#	116241
#	138758
#	161638
#	205764
#
# Disc length: 3064 seconds
#
# Revision: 0
# Processed by: cddbd v1.5.2PL0 Copyright (c) Steve Scherf et al.
# Submitted via: CDex 1.51
#
DISCID=5c0bf607
DTITLE=Masada - Live In Vienne - 7/7/06
DYEAR=1900
DGENRE=Jazz
TTITLE0=Hath-Arob
TTITLE1=Tharsis
TTITLE2=Rahtiel
TTITLE3=Beeroth
TTITLE4=Mibi
TTITLE5=Tagriel
TTITLE6=Rikbiel
EXTD=
EXTT0=
EXTT1=
EXTT2=
EXTT3=
EXTT4=
EXTT5=
EXTT6=
PLAYORDER=
